<?xml version="1.0" encoding="UTF-8"?>
<svg id="Ebene_1" data-name="Ebene 1" xmlns="http://www.w3.org/2000/svg" viewBox="0 0 4638.24 3896.62">
  <defs>
    <style>
      .cls-1, .cls-2 {
        fill: #117f8c;
      }

      .cls-3 {
        fill: #036171;
      }

      .cls-4 {
        fill: #fdf9e8;
      }

      .cls-5 {
        stroke-width: 193.2px;
      }

      .cls-5, .cls-6, .cls-2, .cls-7, .cls-8, .cls-9, .cls-10, .cls-11 {
        stroke-miterlimit: 10;
      }

      .cls-5, .cls-6, .cls-7, .cls-8, .cls-9, .cls-10 {
        fill: none;
      }

      .cls-5, .cls-10 {
        stroke: #032233;
      }

      .cls-6 {
        stroke: #701b10;
      }

      .cls-6, .cls-8 {
        stroke-width: 96.6px;
      }

      .cls-2 {
        stroke: #012536;
      }

      .cls-2, .cls-7, .cls-8, .cls-9, .cls-10 {
        stroke-linecap: round;
      }

      .cls-2, .cls-11 {
        stroke-width: 48.3px;
      }

      .cls-12 {
        fill: #fcbe3e;
      }

      .cls-7 {
        stroke: #117f8c;
      }

      .cls-7, .cls-9, .cls-10 {
        stroke-width: 193.2px;
      }

      .cls-8, .cls-9 {
        stroke: #036171;
      }

      .cls-13 {
        fill: #012536;
      }

      .cls-14 {
        fill: #032233;
      }

      .cls-11 {
        stroke: #fdf9e8;
      }

      .cls-11, .cls-15 {
        fill: #701b10;
      }
    </style>
  </defs>
  <path class="cls-4" d="M753.53,3896.62c-405.7-402.66-656.93-960.74-656.93-1577.5C96.6,1091.65,1091.65,96.6,2319.12,96.6s2222.52,995.06,2222.52,2222.52c0,609.28-245.16,1161.29-642.22,1562.77"/>
  <rect class="cls-13" x="321.29" y="3086.55" width="3995.66" height="235.73"/>
  <rect class="cls-1" x="399.04" y="3322.28" width="3840.16" height="235.73"/>
  <rect class="cls-3" x="558.68" y="3558.01" width="3520.89" height="235.73"/>
  <g>
    <g>
      <path class="cls-12" d="M3494.65,3861.32c-3.59-27.94-5.43-54.04-10.44-79.36-44.61-225.49-119.94-436.57-241.28-625.42-134.46-209.27-312.88-343.57-540.49-399.65-164.58-40.55-312.12-121.09-427.3-262.9-141.04-173.65-197-377.93-179.63-610.32,11.65-155.92,56.88-296.39,143.42-419.24,54.93-77.97,123.15-137.71,211.59-162.57,87.88-24.7,164.28,8.74,202.58,88.91-7.49,2.88-14.43,6.26-21.67,8.24-191.18,52.38-340.45,252.5-361.63,471.24-30.71,317.14,134.1,581.41,408.65,670.82,115.54,37.63,232.86,68.96,340.84,131.03,190.03,109.24,327.08,278.26,436.09,478.25,117.5,215.56,190.86,449,223.53,698.33.64,4.9,1.92,9.69,3.75,18.68M942.51,3867.3c20.29-.08,43.29-7.55,60.36-19.69,136.34-97,246.92-225.03,344.17-367.03,162.33-237.03,282.33-498.6,352.97-786.48,17.74-72.29,28.08-147.16,37.3-221.54,5.12-41.32.92-84.06.92-126.52-1.21-.4-4.36-2.41-5.19-1.58-113.42,114.15-334.5,110.56-472.53-28.54-154.85-156.05-230.58-353.5-207.94-585.53,16.09-164.96,102.7-285.59,238.35-355.59,152.85-78.87,314-129.25,482.33-144.69,78.55-7.21,145.9-28.98,210.72-86.07,285.34-251.28,698.37-222.43,959.61,64.1,40.13,44.01,78.79,64.28,135.3,61.5,99.71-4.92,200.28-7.24,298.22,21.81,211.48,62.73,354.09,205.02,394.35,449.27,30.84,187.11-9.44,361.45-104.7,521.02-89.45,149.85-211.58,246.58-370.47,272.68-87.72,14.41-178.89,9.28-268.06,3.91-49.7-2.99-83.06-41.11-87.78-102.53-114.32-17.1-223.33-52.66-308.14-140.3-60.81-62.84-110.16-139.49-163.75-210.8-15.39-20.48-29.2-42.85-41.09-66.03-13.47-26.26-15.94-54.13,6.41-77.09,23.68-24.33,48.89-13.81,68.59,4.8,15.97,15.08,29.29,36.2,38.22,57.51,88.77,211.86,245.84,315.56,447.37,338.08,91.8,10.26,187.66,11.79,278.03-5.83,178.39-34.78,307.26-209.84,322.98-415.78,2.01-26.3,2.36-52.75,3.18-72.28-38.51,12.24-74.36,30.57-111.32,33.92-71.71,6.49-127.59-50.61-125.42-119.52,2.11-66.98,62.83-122.18,130.88-116.91,21.41,1.66,42.47,8.87,67.34,14.35-23.86-52.42-57.49-91.57-100.01-121.38-57.52-40.33-120.46-62.69-188.66-63.82-78.18-1.3-156.51-4.36-234.54-.58-51.32,2.48-89-15.38-125.15-55.53-81.18-90.14-174.07-162.93-283.31-205.96-177.91-70.08-346.85-53.06-498.75,76.81-85.91,73.45-136.39,178.83-180,286.39-63.72,157.13-94.89,322.85-83.95,495.35,4.49,70.82,19.2,141.14,32.57,210.89,31.24,162.89,15.87,322.7-24.53,480.39-104.76,408.92-282.09,772-554.33,1074.36-5.35,5.95-10.05,12.62-19.31,24.34M1452.31,2235.42c97.61-.22,166.08-42.43,203.46-124.68,26.6-58.54,46.01-122.16,61.61-185.64,47.22-192.2,91.87-385.06,200.38-549.47,2.03-3.07,4.05-6.38,5.15-9.93,6.5-20.99,6.35-37.4-20.34-30.05-21.1,5.81-42.4,11.55-62.68,20.05-80.49,33.73-160.91,67.71-240.79,103.17-87.17,38.69-175.37,75.25-259.96,120.1-60.24,31.94-108.01,83.68-124.04,160.47-24.6,117.82-13.88,231.81,43.26,335.83,49.15,89.46,115.66,154.88,193.96,160.15Z"/>
      <path class="cls-12" d="M1069.27,3867.3l2516.21.09-62.59-416.41-285.42-455.67-142.75-144.07-355.69-146.79-220.19-90.33-191.47-194-96.47-204.95-50.81-179.91,33.88-96.53c12.17-12.62-29.22-104.25,8.06-155.97,32.87-45.6,65.88-149.43,109.41-209.04,33.39-45.73,89.7-94.68,125.03-140.66,43.89-57.12,143.24-9.18,183.64-54.7,81.18-91.48,199.27-52.75,199.27-52.75l-320.54-211.93h-163.02l-187.02,38.16-118.56,79.71-231.48,62.37-186.31,39.98-227.85,94.6-133.48,38.79-91.21,181.4-49.94,290.06,124.21,193.06,107.27,103.63,175.02,90.75,129.86,33.88,39.52-67.75,56.46-16.94,45.17,118.56v186.73l-16.94,174.61-39.52,152.44-79.04,152.44-56.46,186.31-152.44,163.73-28.23,107.27-163.73,169.38-68.43,118.56-133.4,61.92Z"/>
    </g>
    <g>
      <path class="cls-14" d="M3494.65,3861.37c-3.59-27.94-5.43-54.04-10.44-79.36-44.61-225.49-119.94-436.57-241.28-625.42-134.46-209.27-312.88-343.57-540.49-399.65-164.58-40.55-312.12-121.09-427.3-262.9-141.04-173.65-197-377.93-179.63-610.32,11.65-155.92,56.88-296.39,143.42-419.24,54.93-77.97,123.15-137.71,211.59-162.57,87.88-24.7,164.28,8.74,202.58,88.91-7.49,2.88-14.43,6.26-21.67,8.24-191.18,52.38-340.45,252.5-361.63,471.24-30.71,317.14,134.1,581.41,408.65,670.82,115.54,37.63,232.86,68.96,340.84,131.03,190.03,109.24,327.08,278.26,436.09,478.25,117.5,215.56,190.86,449,223.53,698.33.64,4.9,1.92,9.69,3.75,18.68M942.51,3867.34c20.29-.08,43.29-7.55,60.36-19.69,136.34-97,246.92-225.03,344.17-367.03,162.33-237.03,282.33-498.6,352.97-786.48,17.74-72.29,28.08-147.16,37.3-221.54,5.12-41.32.92-84.06.92-126.52-1.21-.4-4.36-2.41-5.19-1.58-113.42,114.15-334.5,110.56-472.53-28.54-154.85-156.05-230.58-353.5-207.94-585.53,16.09-164.96,102.7-285.59,238.35-355.59,152.85-78.87,314-129.25,482.33-144.69,78.55-7.21,145.9-28.98,210.72-86.07,285.34-251.28,698.37-222.43,959.61,64.1,40.13,44.01,78.79,64.28,135.3,61.5,99.71-4.92,200.28-7.24,298.22,21.81,211.48,62.73,354.09,205.02,394.35,449.27,30.84,187.11-9.44,361.45-104.7,521.02-89.45,149.85-211.58,246.58-370.47,272.68-87.72,14.41-178.89,9.28-268.06,3.91-49.7-2.99-83.06-41.11-87.78-102.53-114.32-17.1-223.33-52.66-308.14-140.3-60.81-62.84-110.16-139.49-163.75-210.8-15.39-20.48-29.2-42.85-41.09-66.03-13.47-26.26-15.94-54.13,6.41-77.09,23.68-24.33,48.89-13.81,68.59,4.8,15.97,15.08,29.29,36.2,38.22,57.51,88.77,211.86,245.84,315.56,447.37,338.08,91.8,10.26,187.66,11.79,278.03-5.83,178.39-34.78,307.26-209.84,322.98-415.78,2.01-26.3,2.36-52.75,3.18-72.28-38.51,12.24-74.36,30.57-111.32,33.92-71.71,6.49-127.59-50.61-125.42-119.52,2.11-66.98,62.83-122.18,130.88-116.91,21.41,1.66,42.47,8.87,67.34,14.35-23.86-52.42-57.49-91.57-100.01-121.38-57.52-40.33-120.46-62.69-188.66-63.82-78.18-1.3-156.51-4.36-234.54-.58-51.32,2.48-89-15.38-125.15-55.53-81.18-90.14-174.07-162.93-283.31-205.96-177.91-70.08-346.85-53.06-498.75,76.81-85.91,73.45-136.39,178.83-180,286.39-63.72,157.13-94.89,322.85-83.95,495.35,4.49,70.82,19.2,141.14,32.57,210.89,31.24,162.89,15.87,322.7-24.53,480.39-104.76,408.92-282.09,772-554.33,1074.36-5.35,5.95-10.05,12.62-19.31,24.34M1452.31,2235.46c97.61-.22,166.08-42.43,203.46-124.68,26.6-58.54,46.01-122.16,61.61-185.64,47.22-192.2,91.87-385.06,200.38-549.47,2.03-3.07,4.05-6.38,5.15-9.93,6.5-20.99,6.35-37.4-20.34-30.05-21.1,5.81-42.4,11.55-62.68,20.05-80.49,33.73-160.91,67.71-240.79,103.17-87.17,38.69-175.37,75.25-259.96,120.1-60.24,31.94-108.01,83.68-124.04,160.47-24.6,117.82-13.88,231.81,43.26,335.83,49.15,89.46,115.66,154.88,193.96,160.15Z"/>
      <path class="cls-14" d="M2445.04,1791.39c47.95-84.7,85.78-171.8,168.21-216.8,60.34-32.94,88.88-13.91,92.75,59.94,3.61,68.81-27.01,129.69-83.73,157.74-56.49,27.93-114.21,30.42-177.23-.87Z"/>
    </g>
  </g>
  <path class="cls-7" d="M977.04,1059.98c334.61-359.68,812.07-584.67,1342.07-584.67,529.13,0,1005.89,224.25,1340.41,582.89"/>
  <path class="cls-9" d="M539.27,1339.18C883.16,709.7,1551.28,282.71,2319.12,282.71c767.53,0,1435.42,426.65,1779.43,1055.72"/>
  <line class="cls-10" x1="210.25" y1="2718.21" x2="1046.18" y2="2718.21"/>
  <line class="cls-10" x1="3591.53" y1="2718.21" x2="4427.46" y2="2718.21"/>
  <circle class="cls-1" cx="4048.12" cy="2447.19" r="105.37"/>
  <circle class="cls-1" cx="627.75" cy="2447.19" r="105.37"/>
  <circle class="cls-13" cx="2438.33" cy="3481.65" r="117.72"/>
  <circle class="cls-6" cx="2438.33" cy="3481.65" r="225.17"/>
  <circle class="cls-11" cx="1478.66" cy="1846.79" r="137.39"/>
  <circle class="cls-15" cx="1386.45" cy="2091.49" r="55.37"/>
  <circle class="cls-15" cx="1628.11" cy="1624.07" r="55.37"/>
  <path class="cls-8" d="M2220.7,3808.11c-105.31-70.35-174.67-190.3-174.67-326.45,0-216.66,175.64-392.3,392.3-392.3s392.3,175.64,392.3,392.3c0,134.54-67.73,253.27-170.95,323.94"/>
  <line class="cls-2" x1="1989.84" y1="3720.19" x2="1840.3" y2="3799.51"/>
  <line class="cls-2" x1="1943.38" y1="3595.98" x2="1778.42" y2="3633.9"/>
  <line class="cls-2" x1="1930.66" y1="3463.99" x2="1761.5" y2="3457.91"/>
  <line class="cls-2" x1="1952.53" y1="3333.19" x2="1790.71" y2="3283.54"/>
  <line class="cls-2" x1="2007.51" y1="3212.52" x2="1864.05" y2="3122.67"/>
  <line class="cls-2" x1="2091.84" y1="3110.18" x2="1976.53" y2="2986.27"/>
  <line class="cls-2" x1="2199.79" y1="3033.16" x2="2120.48" y2="2883.63"/>
  <line class="cls-2" x1="2324" y1="2986.71" x2="2286.09" y2="2821.74"/>
  <line class="cls-2" x1="2456" y1="2973.98" x2="2462.08" y2="2804.82"/>
  <line class="cls-2" x1="2586.79" y1="2995.85" x2="2636.44" y2="2834.03"/>
  <line class="cls-2" x1="2707.47" y1="3050.83" x2="2797.31" y2="2907.37"/>
  <line class="cls-2" x1="2809.8" y1="3135.17" x2="2933.71" y2="3019.85"/>
  <line class="cls-2" x1="2886.82" y1="3243.12" x2="3036.36" y2="3163.8"/>
  <line class="cls-2" x1="2933.28" y1="3367.32" x2="3098.25" y2="3329.41"/>
  <line class="cls-2" x1="2946.01" y1="3499.32" x2="3115.17" y2="3505.4"/>
  <line class="cls-2" x1="2924.13" y1="3630.11" x2="3085.96" y2="3679.77"/>
  <line class="cls-2" x1="2869.16" y1="3750.79" x2="3012.61" y2="3840.63"/>
  <path class="cls-5" d="M3982.85,3792.79c347.69-392.23,558.79-908.3,558.79-1473.67,0-1227.46-995.06-2222.52-2222.52-2222.52S96.6,1091.65,96.6,2319.12c0,565.32,211.06,1081.34,558.69,1473.56l3327.56.11Z"/>
</svg>